<svg id="visual" viewBox="0 0 900 600" width="900" height="600" xmlns="http://www.w3.org/2000/svg" xmlns:xlink="http://www.w3.org/1999/xlink" version="1.1"><g stroke-width="1" stroke-linejoin="bevel"><path d="M481.6 328.3L450.4 358.3L526.8 345.3Z" fill="#1d4e6b" stroke="#1d4e6b"></path><path d="M450.4 358.3L483.6 440.7L526.8 345.3Z" fill="#246688" stroke="#246688"></path><path d="M444.4 411L483.6 440.7L450.4 358.3Z" fill="#297ea6" stroke="#297ea6"></path><path d="M483.6 440.7L549.8 421L526.8 345.3Z" fill="#297ea6" stroke="#297ea6"></path><path d="M444.4 411L447.6 438L483.6 440.7Z" fill="#0c2435" stroke="#0c2435"></path><path d="M362.2 386L438.4 448.7L444.4 411Z" fill="#0c2435" stroke="#0c2435"></path><path d="M444.4 411L438.4 448.7L447.6 438Z" fill="#277297" stroke="#277297"></path><path d="M447.6 438L438.4 448.7L483.6 440.7Z" fill="#081a28" stroke="#081a28"></path><path d="M549.8 421L592.1 378L526.8 345.3Z" fill="#297ea6" stroke="#297ea6"></path><path d="M610.1 366.3L527.8 269.7L526.8 345.3Z" fill="#081a28" stroke="#081a28"></path><path d="M526.8 345.3L527.8 269.7L481.6 328.3Z" fill="#0c2435" stroke="#0c2435"></path><path d="M315.2 315.3L362.2 386L450.4 358.3Z" fill="#0c2435" stroke="#0c2435"></path><path d="M665.3 400L610.1 366.3L592.1 378Z" fill="#1d4e6b" stroke="#1d4e6b"></path><path d="M592.1 378L610.1 366.3L526.8 345.3Z" fill="#205a7a" stroke="#205a7a"></path><path d="M430.4 233.7L450.4 358.3L481.6 328.3Z" fill="#19435d" stroke="#19435d"></path><path d="M450.4 358.3L362.2 386L444.4 411Z" fill="#19435d" stroke="#19435d"></path><path d="M483.6 440.7L554.8 492.7L549.8 421Z" fill="#0c2435" stroke="#0c2435"></path><path d="M662.1 427.7L665.3 400L592.1 378Z" fill="#15384f" stroke="#15384f"></path><path d="M462.6 534.3L554.8 492.7L483.6 440.7Z" fill="#297ea6" stroke="#297ea6"></path><path d="M527.8 269.7L450.6 229.7L481.6 328.3Z" fill="#0c2435" stroke="#0c2435"></path><path d="M450.6 229.7L430.4 233.7L481.6 328.3Z" fill="#0c2435" stroke="#0c2435"></path><path d="M362.2 386L351.2 455.7L438.4 448.7Z" fill="#112e42" stroke="#112e42"></path><path d="M438.4 448.7L462.6 534.3L483.6 440.7Z" fill="#0c2435" stroke="#0c2435"></path><path d="M428.4 564.3L462.6 534.3L438.4 448.7Z" fill="#15384f" stroke="#15384f"></path><path d="M652.3 293.7L575.8 226L527.8 269.7Z" fill="#297ea6" stroke="#297ea6"></path><path d="M527.8 269.7L478.6 180L450.6 229.7Z" fill="#112e42" stroke="#112e42"></path><path d="M662.1 427.7L592.1 378L549.8 421Z" fill="#297ea6" stroke="#297ea6"></path><path d="M610.1 366.3L652.3 293.7L527.8 269.7Z" fill="#246688" stroke="#246688"></path><path d="M665.3 400L652.3 293.7L610.1 366.3Z" fill="#1d4e6b" stroke="#1d4e6b"></path><path d="M554.8 492.7L662.1 427.7L549.8 421Z" fill="#15384f" stroke="#15384f"></path><path d="M336.2 261.7L315.2 315.3L450.4 358.3Z" fill="#081a28" stroke="#081a28"></path><path d="M362.2 386L291.9 410L351.2 455.7Z" fill="#297ea6" stroke="#297ea6"></path><path d="M658.1 256.7L593.1 215L575.8 226Z" fill="#297ea6" stroke="#297ea6"></path><path d="M575.8 226L478.6 180L527.8 269.7Z" fill="#15384f" stroke="#15384f"></path><path d="M430.4 233.7L336.2 261.7L450.4 358.3Z" fill="#19435d" stroke="#19435d"></path><path d="M450.6 229.7L478.6 180L430.4 233.7Z" fill="#15384f" stroke="#15384f"></path><path d="M430.4 233.7L376.4 194L336.2 261.7Z" fill="#00101c" stroke="#00101c"></path><path d="M513.8 109.3L478.6 180L575.8 226Z" fill="#081a28" stroke="#081a28"></path><path d="M462.6 534.3L518.8 563.3L554.8 492.7Z" fill="#00101c" stroke="#00101c"></path><path d="M554.8 492.7L678.3 485.7L662.1 427.7Z" fill="#112e42" stroke="#112e42"></path><path d="M652.3 293.7L658.1 256.7L575.8 226Z" fill="#00101c" stroke="#00101c"></path><path d="M698.3 218L658.1 256.7L725.5 222Z" fill="#297ea6" stroke="#297ea6"></path><path d="M283.9 367.3L291.9 410L362.2 386Z" fill="#0c2435" stroke="#0c2435"></path><path d="M351.2 455.7L428.4 564.3L438.4 448.7Z" fill="#277297" stroke="#277297"></path><path d="M462.6 534.3L447.6 600L518.8 563.3Z" fill="#081a28" stroke="#081a28"></path><path d="M344.2 558.3L428.4 564.3L351.2 455.7Z" fill="#112e42" stroke="#112e42"></path><path d="M282.9 285.7L283.9 367.3L315.2 315.3Z" fill="#297ea6" stroke="#297ea6"></path><path d="M315.2 315.3L283.9 367.3L362.2 386Z" fill="#205a7a" stroke="#205a7a"></path><path d="M478.6 180L376.4 194L430.4 233.7Z" fill="#1d4e6b" stroke="#1d4e6b"></path><path d="M640.1 537.3L678.3 485.7L554.8 492.7Z" fill="#112e42" stroke="#112e42"></path><path d="M748.5 397L715.3 363.3L665.3 400Z" fill="#297ea6" stroke="#297ea6"></path><path d="M665.3 400L715.3 363.3L652.3 293.7Z" fill="#297ea6" stroke="#297ea6"></path><path d="M565.8 600L640.1 537.3L554.8 492.7Z" fill="#00101c" stroke="#00101c"></path><path d="M748.5 397L665.3 400L662.1 427.7Z" fill="#081a28" stroke="#081a28"></path><path d="M336.2 261.7L282.9 285.7L315.2 315.3Z" fill="#081a28" stroke="#081a28"></path><path d="M271.9 226L282.9 285.7L336.2 261.7Z" fill="#112e42" stroke="#112e42"></path><path d="M268.9 489.7L314.9 510.3L351.2 455.7Z" fill="#246688" stroke="#246688"></path><path d="M640.1 537.3L653.3 530.3L678.3 485.7Z" fill="#277297" stroke="#277297"></path><path d="M513.8 109.3L466.6 139.3L478.6 180Z" fill="#00101c" stroke="#00101c"></path><path d="M478.6 180L466.6 139.3L376.4 194Z" fill="#277297" stroke="#277297"></path><path d="M411.4 600L447.6 600L428.4 564.3Z" fill="#277297" stroke="#277297"></path><path d="M428.4 564.3L447.6 600L462.6 534.3Z" fill="#081a28" stroke="#081a28"></path><path d="M518.8 563.3L565.8 600L554.8 492.7Z" fill="#00101c" stroke="#00101c"></path><path d="M314.9 510.3L344.2 558.3L351.2 455.7Z" fill="#00101c" stroke="#00101c"></path><path d="M447.6 600L565.8 600L518.8 563.3Z" fill="#1d4e6b" stroke="#1d4e6b"></path><path d="M640.1 537.3L690.3 600L653.3 530.3Z" fill="#15384f" stroke="#15384f"></path><path d="M379.2 600L411.4 600L428.4 564.3Z" fill="#205a7a" stroke="#205a7a"></path><path d="M314.9 510.3L283.9 600L344.2 558.3Z" fill="#19435d" stroke="#19435d"></path><path d="M291.9 410L268.9 489.7L351.2 455.7Z" fill="#205a7a" stroke="#205a7a"></path><path d="M240.7 471.7L268.9 489.7L291.9 410Z" fill="#00101c" stroke="#00101c"></path><path d="M229.7 436L291.9 410L283.9 367.3Z" fill="#15384f" stroke="#15384f"></path><path d="M386.4 132.3L354.2 154.3L376.4 194Z" fill="#297ea6" stroke="#297ea6"></path><path d="M310.2 162L271.9 226L336.2 261.7Z" fill="#277297" stroke="#277297"></path><path d="M344.2 558.3L379.2 600L428.4 564.3Z" fill="#081a28" stroke="#081a28"></path><path d="M283.9 600L379.2 600L344.2 558.3Z" fill="#081a28" stroke="#081a28"></path><path d="M658.1 256.7L698.3 218L593.1 215Z" fill="#205a7a" stroke="#205a7a"></path><path d="M593.1 215L610.1 142.3L575.8 226Z" fill="#0c2435" stroke="#0c2435"></path><path d="M725.5 222L658.1 256.7L652.3 293.7Z" fill="#00101c" stroke="#00101c"></path><path d="M698.3 218L610.1 142.3L593.1 215Z" fill="#246688" stroke="#246688"></path><path d="M786.5 434.7L748.5 397L678.3 485.7Z" fill="#277297" stroke="#277297"></path><path d="M678.3 485.7L748.5 397L662.1 427.7Z" fill="#1d4e6b" stroke="#1d4e6b"></path><path d="M715.3 363.3L762.5 334.3L652.3 293.7Z" fill="#0c2435" stroke="#0c2435"></path><path d="M454.6 86.7L386.4 132.3L466.6 139.3Z" fill="#19435d" stroke="#19435d"></path><path d="M466.6 139.3L386.4 132.3L376.4 194Z" fill="#00101c" stroke="#00101c"></path><path d="M610.1 142.3L513.8 109.3L575.8 226Z" fill="#112e42" stroke="#112e42"></path><path d="M310.2 162L336.2 261.7L376.4 194Z" fill="#19435d" stroke="#19435d"></path><path d="M167.7 370.3L229.7 436L283.9 367.3Z" fill="#081a28" stroke="#081a28"></path><path d="M565.8 600L628.1 600L640.1 537.3Z" fill="#246688" stroke="#246688"></path><path d="M781.5 553.3L786.5 434.7L678.3 485.7Z" fill="#081a28" stroke="#081a28"></path><path d="M167.7 370.3L283.9 367.3L282.9 285.7Z" fill="#19435d" stroke="#19435d"></path><path d="M229.7 436L240.7 471.7L291.9 410Z" fill="#277297" stroke="#277297"></path><path d="M268.9 489.7L283.9 600L314.9 510.3Z" fill="#112e42" stroke="#112e42"></path><path d="M748.5 397L762.5 334.3L715.3 363.3Z" fill="#112e42" stroke="#112e42"></path><path d="M354.2 154.3L310.2 162L376.4 194Z" fill="#297ea6" stroke="#297ea6"></path><path d="M294.9 113.3L310.2 162L354.2 154.3Z" fill="#1d4e6b" stroke="#1d4e6b"></path><path d="M671.3 106.3L604.1 86.7L610.1 142.3Z" fill="#19435d" stroke="#19435d"></path><path d="M762.5 334.3L725.5 222L652.3 293.7Z" fill="#297ea6" stroke="#297ea6"></path><path d="M513.8 109.3L454.6 86.7L466.6 139.3Z" fill="#081a28" stroke="#081a28"></path><path d="M386.4 132.3L349.2 85.7L354.2 154.3Z" fill="#19435d" stroke="#19435d"></path><path d="M518.8 72.7L454.6 86.7L513.8 109.3Z" fill="#0c2435" stroke="#0c2435"></path><path d="M604.1 86.7L513.8 109.3L610.1 142.3Z" fill="#19435d" stroke="#19435d"></path><path d="M604.1 86.7L518.8 72.7L513.8 109.3Z" fill="#15384f" stroke="#15384f"></path><path d="M169.7 190L217.7 248.7L271.9 226Z" fill="#081a28" stroke="#081a28"></path><path d="M271.9 226L217.7 248.7L282.9 285.7Z" fill="#1d4e6b" stroke="#1d4e6b"></path><path d="M781.5 553.3L678.3 485.7L653.3 530.3Z" fill="#081a28" stroke="#081a28"></path><path d="M748.5 397L786.5 434.7L762.5 334.3Z" fill="#1d4e6b" stroke="#1d4e6b"></path><path d="M628.1 600L690.3 600L640.1 537.3Z" fill="#1d4e6b" stroke="#1d4e6b"></path><path d="M671.3 106.3L610.1 142.3L698.3 218Z" fill="#19435d" stroke="#19435d"></path><path d="M762.5 334.3L766.5 228.7L725.5 222Z" fill="#19435d" stroke="#19435d"></path><path d="M734.5 144.3L671.3 106.3L698.3 218Z" fill="#19435d" stroke="#19435d"></path><path d="M855.8 307.3L766.5 228.7L762.5 334.3Z" fill="#0c2435" stroke="#0c2435"></path><path d="M175.5 520.3L283.9 600L268.9 489.7Z" fill="#277297" stroke="#277297"></path><path d="M401.4 59.7L349.2 85.7L386.4 132.3Z" fill="#15384f" stroke="#15384f"></path><path d="M310.2 162L246.7 138.3L271.9 226Z" fill="#081a28" stroke="#081a28"></path><path d="M401.4 59.7L386.4 132.3L454.6 86.7Z" fill="#277297" stroke="#277297"></path><path d="M734.5 144.3L698.3 218L725.5 222Z" fill="#246688" stroke="#246688"></path><path d="M471.6 0L401.4 59.7L454.6 86.7Z" fill="#1d4e6b" stroke="#1d4e6b"></path><path d="M349.2 85.7L294.9 113.3L354.2 154.3Z" fill="#00101c" stroke="#00101c"></path><path d="M229.7 436L181.7 495.3L240.7 471.7Z" fill="#0c2435" stroke="#0c2435"></path><path d="M240.7 471.7L175.5 520.3L268.9 489.7Z" fill="#277297" stroke="#277297"></path><path d="M217.7 248.7L167.7 370.3L282.9 285.7Z" fill="#00101c" stroke="#00101c"></path><path d="M167.7 370.3L166.5 411L229.7 436Z" fill="#00101c" stroke="#00101c"></path><path d="M766.5 228.7L734.5 144.3L725.5 222Z" fill="#1d4e6b" stroke="#1d4e6b"></path><path d="M166.5 411L181.7 495.3L229.7 436Z" fill="#112e42" stroke="#112e42"></path><path d="M294.9 113.3L246.7 138.3L310.2 162Z" fill="#277297" stroke="#277297"></path><path d="M109.5 289.7L105.2 329.3L167.7 370.3Z" fill="#15384f" stroke="#15384f"></path><path d="M690.3 600L781.5 553.3L653.3 530.3Z" fill="#297ea6" stroke="#297ea6"></path><path d="M126.5 457.7L175.5 520.3L181.7 495.3Z" fill="#19435d" stroke="#19435d"></path><path d="M181.7 495.3L175.5 520.3L240.7 471.7Z" fill="#205a7a" stroke="#205a7a"></path><path d="M690.3 600L767.5 600L781.5 553.3Z" fill="#297ea6" stroke="#297ea6"></path><path d="M866.8 499.7L852.8 438L786.5 434.7Z" fill="#277297" stroke="#277297"></path><path d="M786.5 434.7L852.8 438L762.5 334.3Z" fill="#0c2435" stroke="#0c2435"></path><path d="M766.5 228.7L798.8 156.3L734.5 144.3Z" fill="#205a7a" stroke="#205a7a"></path><path d="M866.8 499.7L786.5 434.7L781.5 553.3Z" fill="#297ea6" stroke="#297ea6"></path><path d="M246.7 138.3L169.7 190L271.9 226Z" fill="#15384f" stroke="#15384f"></path><path d="M104.2 435L126.5 457.7L166.5 411Z" fill="#297ea6" stroke="#297ea6"></path><path d="M852.8 438L855.8 307.3L762.5 334.3Z" fill="#1d4e6b" stroke="#1d4e6b"></path><path d="M294.9 113.3L270.9 73.7L246.7 138.3Z" fill="#205a7a" stroke="#205a7a"></path><path d="M246.7 138.3L121.5 154.3L169.7 190Z" fill="#0c2435" stroke="#0c2435"></path><path d="M349.2 85.7L270.9 73.7L294.9 113.3Z" fill="#112e42" stroke="#112e42"></path><path d="M309.2 0L270.9 73.7L349.2 85.7Z" fill="#205a7a" stroke="#205a7a"></path><path d="M518.8 72.7L471.6 0L454.6 86.7Z" fill="#297ea6" stroke="#297ea6"></path><path d="M401.4 59.7L387.4 0L349.2 85.7Z" fill="#00101c" stroke="#00101c"></path><path d="M528.8 0L471.6 0L518.8 72.7Z" fill="#1d4e6b" stroke="#1d4e6b"></path><path d="M528.8 0L518.8 72.7L600.1 0Z" fill="#205a7a" stroke="#205a7a"></path><path d="M600.1 0L604.1 86.7L699.3 32.7Z" fill="#297ea6" stroke="#297ea6"></path><path d="M600.1 0L518.8 72.7L604.1 86.7Z" fill="#297ea6" stroke="#297ea6"></path><path d="M862.8 235L798.8 156.3L766.5 228.7Z" fill="#205a7a" stroke="#205a7a"></path><path d="M779.5 90.7L699.3 32.7L671.3 106.3Z" fill="#00101c" stroke="#00101c"></path><path d="M102.5 351.3L166.5 411L167.7 370.3Z" fill="#19435d" stroke="#19435d"></path><path d="M166.5 411L126.5 457.7L181.7 495.3Z" fill="#297ea6" stroke="#297ea6"></path><path d="M175.5 520.3L185.7 600L283.9 600Z" fill="#112e42" stroke="#112e42"></path><path d="M173.5 600L185.7 600L175.5 520.3Z" fill="#0c2435" stroke="#0c2435"></path><path d="M471.6 0L387.4 0L401.4 59.7Z" fill="#297ea6" stroke="#297ea6"></path><path d="M699.3 32.7L604.1 86.7L671.3 106.3Z" fill="#00101c" stroke="#00101c"></path><path d="M109.5 289.7L167.7 370.3L217.7 248.7Z" fill="#112e42" stroke="#112e42"></path><path d="M105.2 329.3L102.5 351.3L167.7 370.3Z" fill="#1d4e6b" stroke="#1d4e6b"></path><path d="M109.5 218L109.5 289.7L217.7 248.7Z" fill="#112e42" stroke="#112e42"></path><path d="M105.2 329.3L0 346.3L102.5 351.3Z" fill="#15384f" stroke="#15384f"></path><path d="M900 278.7L862.8 243.7L855.8 307.3Z" fill="#00101c" stroke="#00101c"></path><path d="M855.8 307.3L862.8 243.7L766.5 228.7Z" fill="#00101c" stroke="#00101c"></path><path d="M88.2 600L173.5 600L175.5 520.3Z" fill="#205a7a" stroke="#205a7a"></path><path d="M102.5 351.3L104.2 435L166.5 411Z" fill="#0c2435" stroke="#0c2435"></path><path d="M126.5 457.7L48.2 495.3L175.5 520.3Z" fill="#1d4e6b" stroke="#1d4e6b"></path><path d="M862.8 243.7L862.8 235L766.5 228.7Z" fill="#277297" stroke="#277297"></path><path d="M779.5 90.7L734.5 144.3L798.8 156.3Z" fill="#1d4e6b" stroke="#1d4e6b"></path><path d="M779.5 90.7L671.3 106.3L734.5 144.3Z" fill="#19435d" stroke="#19435d"></path><path d="M864.8 564.3L866.8 499.7L781.5 553.3Z" fill="#00101c" stroke="#00101c"></path><path d="M852.8 438L900 402L855.8 307.3Z" fill="#205a7a" stroke="#205a7a"></path><path d="M862.8 243.7L900 278.7L862.8 235Z" fill="#246688" stroke="#246688"></path><path d="M865.8 42.7L779.5 90.7L900 69.7Z" fill="#112e42" stroke="#112e42"></path><path d="M109.5 289.7L93.2 295.7L105.2 329.3Z" fill="#00101c" stroke="#00101c"></path><path d="M0 381L80.2 453.7L104.2 435Z" fill="#00101c" stroke="#00101c"></path><path d="M109.5 218L93.2 295.7L109.5 289.7Z" fill="#1d4e6b" stroke="#1d4e6b"></path><path d="M900 441.7L900 402L852.8 438Z" fill="#00101c" stroke="#00101c"></path><path d="M900 402L900 326.3L855.8 307.3Z" fill="#00101c" stroke="#00101c"></path><path d="M169.7 190L109.5 218L217.7 248.7Z" fill="#205a7a" stroke="#205a7a"></path><path d="M121.5 154.3L109.5 218L169.7 190Z" fill="#15384f" stroke="#15384f"></path><path d="M387.4 0L309.2 0L349.2 85.7Z" fill="#081a28" stroke="#081a28"></path><path d="M270.9 73.7L224.7 36.7L246.7 138.3Z" fill="#19435d" stroke="#19435d"></path><path d="M309.2 0L306.9 0L270.9 73.7Z" fill="#1d4e6b" stroke="#1d4e6b"></path><path d="M767.5 600L835.8 600L781.5 553.3Z" fill="#205a7a" stroke="#205a7a"></path><path d="M866.8 499.7L900 441.7L852.8 438Z" fill="#277297" stroke="#277297"></path><path d="M900 520.3L900 441.7L866.8 499.7Z" fill="#205a7a" stroke="#205a7a"></path><path d="M900 326.3L900 278.7L855.8 307.3Z" fill="#112e42" stroke="#112e42"></path><path d="M862.8 235L900 163.3L798.8 156.3Z" fill="#00101c" stroke="#00101c"></path><path d="M48.2 495.3L80.2 453.7L0 453.7Z" fill="#0c2435" stroke="#0c2435"></path><path d="M104.2 435L80.2 453.7L126.5 457.7Z" fill="#081a28" stroke="#081a28"></path><path d="M835.8 600L864.8 564.3L781.5 553.3Z" fill="#15384f" stroke="#15384f"></path><path d="M777.5 0L695.3 0L699.3 32.7Z" fill="#297ea6" stroke="#297ea6"></path><path d="M699.3 32.7L695.3 0L600.1 0Z" fill="#297ea6" stroke="#297ea6"></path><path d="M306.9 0L224.7 36.7L270.9 73.7Z" fill="#112e42" stroke="#112e42"></path><path d="M174.5 55.7L121.5 154.3L246.7 138.3Z" fill="#1d4e6b" stroke="#1d4e6b"></path><path d="M109.5 218L59.2 199L93.2 295.7Z" fill="#15384f" stroke="#15384f"></path><path d="M864.8 564.3L900 520.3L866.8 499.7Z" fill="#246688" stroke="#246688"></path><path d="M174.5 0L174.5 55.7L224.7 36.7Z" fill="#112e42" stroke="#112e42"></path><path d="M224.7 36.7L174.5 55.7L246.7 138.3Z" fill="#277297" stroke="#277297"></path><path d="M900 278.7L900 163.3L862.8 235Z" fill="#19435d" stroke="#19435d"></path><path d="M779.5 90.7L777.5 0L699.3 32.7Z" fill="#081a28" stroke="#081a28"></path><path d="M900 163.3L900 160L798.8 156.3Z" fill="#00101c" stroke="#00101c"></path><path d="M306.9 0L218.7 0L224.7 36.7Z" fill="#00101c" stroke="#00101c"></path><path d="M0 381L104.2 435L102.5 351.3Z" fill="#081a28" stroke="#081a28"></path><path d="M80.2 453.7L48.2 495.3L126.5 457.7Z" fill="#297ea6" stroke="#297ea6"></path><path d="M0 381L102.5 351.3L0 346.3Z" fill="#081a28" stroke="#081a28"></path><path d="M48.2 495.3L88.2 600L175.5 520.3Z" fill="#00101c" stroke="#00101c"></path><path d="M63.2 114.3L59.2 199L121.5 154.3Z" fill="#00101c" stroke="#00101c"></path><path d="M121.5 154.3L59.2 199L109.5 218Z" fill="#112e42" stroke="#112e42"></path><path d="M63.2 114.3L121.5 154.3L84.2 81.7Z" fill="#246688" stroke="#246688"></path><path d="M818.8 0L777.5 0L779.5 90.7Z" fill="#15384f" stroke="#15384f"></path><path d="M835.8 600L900 600L864.8 564.3Z" fill="#15384f" stroke="#15384f"></path><path d="M864.8 564.3L900 600L900 520.3Z" fill="#081a28" stroke="#081a28"></path><path d="M218.7 0L174.5 0L224.7 36.7Z" fill="#297ea6" stroke="#297ea6"></path><path d="M0 346.3L105.2 329.3L93.2 295.7Z" fill="#19435d" stroke="#19435d"></path><path d="M48.2 495.3L0 558.3L88.2 600Z" fill="#297ea6" stroke="#297ea6"></path><path d="M0 240.7L0 346.3L93.2 295.7Z" fill="#1d4e6b" stroke="#1d4e6b"></path><path d="M865.8 42.7L818.8 0L779.5 90.7Z" fill="#246688" stroke="#246688"></path><path d="M900 69.7L779.5 90.7L798.8 156.3Z" fill="#1d4e6b" stroke="#1d4e6b"></path><path d="M0 381L0 453.7L80.2 453.7Z" fill="#0c2435" stroke="#0c2435"></path><path d="M84.2 81.7L121.5 154.3L174.5 55.7Z" fill="#15384f" stroke="#15384f"></path><path d="M59.2 199L0 240.7L93.2 295.7Z" fill="#15384f" stroke="#15384f"></path><path d="M174.5 0L84.2 81.7L174.5 55.7Z" fill="#15384f" stroke="#15384f"></path><path d="M900 160L900 69.7L798.8 156.3Z" fill="#1d4e6b" stroke="#1d4e6b"></path><path d="M865.8 42.7L900 0L818.8 0Z" fill="#15384f" stroke="#15384f"></path><path d="M0 202L0 240.7L59.2 199Z" fill="#297ea6" stroke="#297ea6"></path><path d="M0 138.3L0 202L59.2 199Z" fill="#0c2435" stroke="#0c2435"></path><path d="M0 138.3L59.2 199L63.2 114.3Z" fill="#112e42" stroke="#112e42"></path><path d="M0 453.7L0 558.3L48.2 495.3Z" fill="#277297" stroke="#277297"></path><path d="M0 558.3L0 600L88.2 600Z" fill="#246688" stroke="#246688"></path><path d="M0 103.7L0 138.3L63.2 114.3Z" fill="#112e42" stroke="#112e42"></path><path d="M0 103.7L63.2 114.3L84.2 81.7Z" fill="#0c2435" stroke="#0c2435"></path><path d="M900 69.7L900 0L865.8 42.7Z" fill="#112e42" stroke="#112e42"></path><path d="M48.2 0L0 103.7L84.2 81.7Z" fill="#297ea6" stroke="#297ea6"></path><path d="M174.5 0L48.2 0L84.2 81.7Z" fill="#246688" stroke="#246688"></path><path d="M48.2 0L0 0L0 103.7Z" fill="#19435d" stroke="#19435d"></path></g></svg>